TITLE ""
FILE "P1Q_t_0349-0358.mp3" MP3
  TRACK 01 AUDIO
    TITLE "P1Q_t_0349-0358_01"
    INDEX 01 00:00:00
  TRACK 02 AUDIO
    TITLE "P1Q_t_0349-0358_02"
    INDEX 01 00:01:27
  TRACK 03 AUDIO
    TITLE "P1Q_t_0349-0358_03"
    INDEX 01 00:01:49
  TRACK 04 AUDIO
    TITLE "P1Q_t_0349-0358_04"
    INDEX 01 00:03:40
  TRACK 05 AUDIO
    TITLE "P1Q_t_0349-0358_05"
    INDEX 01 00:03:60
  TRACK 06 AUDIO
    TITLE "P1Q_t_0349-0358_06"
    INDEX 01 00:07:46
  TRACK 07 AUDIO
    TITLE "P1Q_t_0349-0358_07"
    INDEX 01 00:08:16
  TRACK 08 AUDIO
    TITLE "P1Q_t_0349-0358_08"
    INDEX 01 00:09:33
  TRACK 09 AUDIO
    TITLE "P1Q_t_0349-0358_09"
    INDEX 01 00:09:56
  TRACK 10 AUDIO
    TITLE "P1Q_t_0349-0358_10"
    INDEX 01 00:12:17
  TRACK 11 AUDIO
    TITLE "P1Q_t_0349-0358_11"
    INDEX 01 00:12:37
  TRACK 12 AUDIO
    TITLE "P1Q_t_0349-0358_12"
    INDEX 01 00:17:24
  TRACK 13 AUDIO
    TITLE "P1Q_t_0349-0358_13"
    INDEX 01 00:17:70
  TRACK 14 AUDIO
    TITLE "P1Q_t_0349-0358_14"
    INDEX 01 00:19:08
  TRACK 15 AUDIO
    TITLE "P1Q_t_0349-0358_15"
    INDEX 01 00:19:29
  TRACK 16 AUDIO
    TITLE "P1Q_t_0349-0358_16"
    INDEX 01 00:23:03
  TRACK 17 AUDIO
    TITLE "P1Q_t_0349-0358_17"
    INDEX 01 00:23:23
  TRACK 18 AUDIO
    TITLE "P1Q_t_0349-0358_18"
    INDEX 01 00:28:32
  TRACK 19 AUDIO
    TITLE "P1Q_t_0349-0358_19"
    INDEX 01 00:29:06
  TRACK 20 AUDIO
    TITLE "P1Q_t_0349-0358_20"
    INDEX 01 00:30:27
  TRACK 21 AUDIO
    TITLE "P1Q_t_0349-0358_21"
    INDEX 01 00:30:47
  TRACK 22 AUDIO
    TITLE "P1Q_t_0349-0358_22"
    INDEX 01 00:32:24
  TRACK 23 AUDIO
    TITLE "P1Q_t_0349-0358_23"
    INDEX 01 00:32:44
  TRACK 24 AUDIO
    TITLE "P1Q_t_0349-0358_24"
    INDEX 01 00:36:39
  TRACK 25 AUDIO
    TITLE "P1Q_t_0349-0358_25"
    INDEX 01 00:37:11
  TRACK 26 AUDIO
    TITLE "P1Q_t_0349-0358_26"
    INDEX 01 00:38:17
  TRACK 27 AUDIO
    TITLE "P1Q_t_0349-0358_27"
    INDEX 01 00:38:38
  TRACK 28 AUDIO
    TITLE "P1Q_t_0349-0358_28"
    INDEX 01 00:41:09
  TRACK 29 AUDIO
    TITLE "P1Q_t_0349-0358_29"
    INDEX 01 00:41:31
  TRACK 30 AUDIO
    TITLE "P1Q_t_0349-0358_30"
    INDEX 01 00:46:22
  TRACK 31 AUDIO
    TITLE "P1Q_t_0349-0358_31"
    INDEX 01 00:46:69
  TRACK 32 AUDIO
    TITLE "P1Q_t_0349-0358_32"
    INDEX 01 00:47:71
  TRACK 33 AUDIO
    TITLE "P1Q_t_0349-0358_33"
    INDEX 01 00:48:17
  TRACK 34 AUDIO
    TITLE "P1Q_t_0349-0358_34"
    INDEX 01 00:50:32
  TRACK 35 AUDIO
    TITLE "P1Q_t_0349-0358_35"
    INDEX 01 00:50:51
  TRACK 36 AUDIO
    TITLE "P1Q_t_0349-0358_36"
    INDEX 01 00:54:63
  TRACK 37 AUDIO
    TITLE "P1Q_t_0349-0358_37"
    INDEX 01 00:55:39
  TRACK 38 AUDIO
    TITLE "P1Q_t_0349-0358_38"
    INDEX 01 00:56:72
  TRACK 39 AUDIO
    TITLE "P1Q_t_0349-0358_39"
    INDEX 01 00:57:20
  TRACK 40 AUDIO
    TITLE "P1Q_t_0349-0358_40"
    INDEX 01 00:58:14
  TRACK 41 AUDIO
    TITLE "P1Q_t_0349-0358_41"
    INDEX 01 00:58:33
  TRACK 42 AUDIO
    TITLE "P1Q_t_0349-0358_42"
    INDEX 01 01:03:11
  TRACK 43 AUDIO
    TITLE "P1Q_t_0349-0358_43"
    INDEX 01 01:03:58
  TRACK 44 AUDIO
    TITLE "P1Q_t_0349-0358_44"
    INDEX 01 01:05:10
  TRACK 45 AUDIO
    TITLE "P1Q_t_0349-0358_45"
    INDEX 01 01:05:31
  TRACK 46 AUDIO
    TITLE "P1Q_t_0349-0358_46"
    INDEX 01 01:07:38
  TRACK 47 AUDIO
    TITLE "P1Q_t_0349-0358_47"
    INDEX 01 01:07:60
  TRACK 48 AUDIO
    TITLE "P1Q_t_0349-0358_48"
    INDEX 01 01:14:09
  TRACK 49 AUDIO
    TITLE "P1Q_t_0349-0358_49"
    INDEX 01 01:14:56
  TRACK 50 AUDIO
    TITLE "P1Q_t_0349-0358_50"
    INDEX 01 01:15:67
  TRACK 51 AUDIO
    TITLE "P1Q_t_0349-0358_51"
    INDEX 01 01:16:15
  TRACK 52 AUDIO
    TITLE "P1Q_t_0349-0358_52"
    INDEX 01 01:19:22
  TRACK 53 AUDIO
    TITLE "P1Q_t_0349-0358_53"
    INDEX 01 01:19:41
  TRACK 54 AUDIO
    TITLE "P1Q_t_0349-0358_54"
    INDEX 01 01:24:68
  TRACK 55 AUDIO
    TITLE "P1Q_t_0349-0358_55"
    INDEX 01 01:25:38
  TRACK 56 AUDIO
    TITLE "P1Q_t_0349-0358_56"
    INDEX 01 01:26:71
  TRACK 57 AUDIO
    TITLE "P1Q_t_0349-0358_57"
    INDEX 01 01:27:17
  TRACK 58 AUDIO
    TITLE "P1Q_t_0349-0358_58"
    INDEX 01 01:29:12
  TRACK 59 AUDIO
    TITLE "P1Q_t_0349-0358_59"
    INDEX 01 01:29:34
  TRACK 60 AUDIO
    TITLE "P1Q_t_0349-0358_60"
    INDEX 01 01:34:25
